<?xml version="1.0" encoding="iso-8859-1"?>
<!-- Generator: Adobe Illustrator 24.0.2, SVG Export Plug-In . SVG Version: 6.00 Build 0)  -->
<svg version="1.1" id="Capa_1" xmlns="http://www.w3.org/2000/svg" xmlns:xlink="http://www.w3.org/1999/xlink" x="0px" y="0px"
	 viewBox="0 0 477.645 360.31" style="enable-background:new 0 0 477.645 360.31;" xml:space="preserve">
<g>
	<path style="fill:#EAEAEA;" d="M441.837,266.265L441.837,266.265c0,26.706-21.957,48.557-48.793,48.557H369.92
		c-26.836,0-48.792-21.851-48.792-48.557v0l-0.113-114.147c0-11.016,9.057-20.03,20.127-20.03h6.445
		c11.07,0,20.127,9.013,20.127,20.03v17.812v47.834V241.5c0,6.183,5.084,11.242,11.297,11.242h4.55
		c6.213,0,11.297-5.059,11.297-11.242v-23.746V169.93v-17.672c0-11.016,9.057-20.03,20.127-20.03h6.445
		c11.07,0,20.127,9.013,20.127,20.03L441.837,266.265z M174.128,228.929V92.375c0-12.842-10.507-23.35-23.35-23.35h0
		c-12.842,0-23.35,10.507-23.35,23.35v136.554c0,12.842,10.507,23.35,23.35,23.35h0
		C163.621,252.279,174.128,241.771,174.128,228.929z M427.426,70.377c-8.061,6.633-16.122,13.266-24.182,19.898
		c-1.832,1.507-1.907,5.291,0,6.774c8.429,6.557,16.857,13.113,25.286,19.67c1.049,0.816,1.998,1.403,3.387,1.403
		c1.175,0,2.578-0.522,3.387-1.403c1.576-1.717,2.112-5.131,0-6.774c-8.429-6.557-16.857-13.113-25.286-19.67
		c0,2.258,0,4.516,0,6.774c8.061-6.633,16.122-13.266,24.182-19.898c1.943-1.599,1.78-5.14,0-6.774
		C432.136,68.481,429.499,68.671,427.426,70.377L427.426,70.377z M162.778,308.26l8.419-8.419c6.6-6.6,6.6-17.4,0-24l-8.419-8.419
		c-6.6-6.6-17.4-6.6-24,0l-8.419,8.419c-6.6,6.6-6.6,17.4,0,24l8.419,8.419C145.378,314.86,156.178,314.86,162.778,308.26z
		 M114.572,149.464V82.746c0-7.547-6.098-13.721-13.551-13.721H81.424c-7.453,0-13.551,6.174-13.551,13.721v49.342H33.213
		c-9.813,0-17.842,8.13-17.842,18.066v7.775c0,9.936,8.029,18.066,17.842,18.066h34.659v94.92h-0.024v29.1
		c0,8.177,6.629,14.806,14.806,14.806h13.379c0.576,0,1.143-0.033,1.705-0.088h3.281c7.453,0,13.551-6.174,13.551-13.721V158.62
		c0.009-0.231,0.035-0.458,0.035-0.691v-7.775C114.607,149.922,114.581,149.695,114.572,149.464z M356.24,114.813l8.419-8.419
		c6.6-6.6,6.6-17.4,0-24l-8.419-8.419c-6.6-6.6-17.4-6.6-24,0l-8.419,8.419c-6.6,6.6-6.6,17.4,0,24l8.419,8.419
		C338.84,121.413,349.64,121.413,356.24,114.813z"/>
	<path style="fill:#EAEAEA;" d="M256.983,70.814H232.83c-26.68,0-48.508,24.69-48.508,54.867v0.113h14.028v-2.574
		c0-1.81,1.294-3.277,2.888-3.277h36.929c1.595,0,2.888,1.467,2.888,3.277v5.458v4.766h11.473l-0.04-4.766v-5.458
		c0-1.81,1.293-3.277,2.888-3.277h36.93c1.595,0,2.888,1.467,2.888,3.277v2.574h10.296v-0.113
		C305.492,95.504,283.662,70.814,256.983,70.814z"/>
	<path style="fill:#EAEAEA;" d="M295.222,133.877v7.272c0,8.932-7.654,16.24-17.007,16.24h-8.467
		c-9.354,0-17.006-7.308-17.006-16.24l-0.008-0.83h-11.507v0.83c0,8.932-7.653,16.24-17.006,16.24h-8.467
		c-9.353,0-17.006-7.308-17.006-16.24l-0.073-7.272h-12.229h-1.802h-0.321v25.567v0.279v137.668c0,10.571,9.057,19.22,20.127,19.22
		h6.446c11.069,0,20.126-8.649,20.126-19.22v-22.618v-26.751v-14.877v-38.926v-3.643c0-7.204,5.894-13.098,13.097-13.098h1.576
		c7.204,0,13.097,5.894,13.097,13.098v3.643v38.926v14.885v49.361c0,10.571,9.057,19.22,20.126,19.22h6.446
		c11.07,0,20.127-8.649,20.127-19.22v-95.519v-42.428v-25.567H295.222z"/>
</g>
</svg>
